#!OML:ASF H:\Terrain\Patient Classification 1\Takeo\Monday\TakeoMonday.ASF
:FULLY-SPECIFIED
:DEGREES
579
root 10.9807 17.7572 -0.656253 -3.83062 -35.5045 4.31437
lowerback 6.7467 -2.91674 2.956
upperback 7.46016 -3.96355 2.35145
thorax 3.94096 -1.96392 0.908593
lowerneck -7.20177 -6.4195 -5.17657
upperneck 34.4306 -10.3469 3.49296
head 13.2054 -4.99 0.843451
rclavicle 1.78906e-014 -2.8625e-014
rhumerus -58.2951 49.2656 -89.2998
rradius 117.505
rwrist -27.2317
rhand -22.8444 20.6908
rfingers 7.12502
rthumb 3.59333 -9.25869
lclavicle 1.78906e-014 -2.8625e-014
lhumerus -31.4461 3.43863 86.5573
lradius 45.4375
lwrist 37.5877
lhand -19.9366 20.6209
lfingers 7.12502
lthumb 6.40099 50.5042
rfemur -11.8949 17.6579 12.0402
rtibia 25.0473
rfoot -9.91144 -4.43543
rtoes -7.50631
lfemur -2.22895 17.3418 -26.9884
ltibia 20.815
lfoot -19.8094 25.7247
ltoes 6.77237
580
root 10.9471 17.7667 -0.648738 -4.00103 -35.2546 4.2122
lowerback 6.52081 -2.90242 2.76461
upperback 7.37334 -3.94758 2.13538
thorax 3.96944 -1.95615 0.780719
lowerneck -7.19319 -6.352 -4.81936
upperneck 34.2654 -10.2586 3.38218
head 13.0944 -4.92456 0.755662
rclavicle -8.8658e-014 2.8625e-014
rhumerus -57.8562 49.3279 -89.0545
rradius 118.259
rwrist -27.7998
rhand -22.5759 20.5795
rfingers 7.12502
rthumb 3.85265 -9.36547
lclavicle -8.8658e-014 2.8625e-014
lhumerus -31.4994 4.1629 85.9145
lradius 45.007
lwrist 36.0243
lhand -18.7752 21.1657
lfingers 7.12502
lthumb 7.5221 51.012
rfemur -11.1632 17.3754 12.3161
rtibia 24.53
rfoot -9.91409 -4.32939
rtoes -7.27436
lfemur -1.61946 16.8317 -26.786
ltibia 20.3675
lfoot -19.6956 26.0637
ltoes 6.62997
581
root 10.9144 17.785 -0.643535 -4.01182 -35.037 4.16807
lowerback 6.15421 -2.80821 2.62187
upperback 7.19654 -3.82101 1.86294
thorax 3.97475 -1.88819 0.559806
lowerneck -7.15457 -6.34436 -4.38856
upperneck 34.1347 -10.313 3.37137
head 13.0033 -4.901 0.674943
rclavicle -1.04163e-013 3.33958e-014
rhumerus -57.6818 49.111 -89.0284
rradius 119.094
rwrist -28.5661
rhand -22.3872 20.0662
rfingers 7.12502
rthumb 4.0349 -9.87536
lclavicle -1.04163e-013 3.33958e-014
lhumerus -31.6316 3.86344 85.4917
lradius 44.7087
lwrist 36.2878
lhand -17.7574 22.3933
lfingers 7.12502
lthumb 8.50444 52.2021
rfemur -10.8196 16.8552 12.4661
rtibia 24.1607
rfoot -9.86179 -3.98057
rtoes -7.89346
lfemur -1.17845 16.5107 -26.6899
ltibia 19.8029
lfoot -19.3309 26.314
ltoes 6.20815
582
root 10.884 17.8047 -0.643797 -3.96215 -34.9043 4.01033
lowerback 5.91973 -2.66923 2.6443
upperback 6.93793 -3.62118 1.63047
thorax 3.81571 -1.77938 0.297148
lowerneck -6.96554 -6.35239 -4.39484
upperneck 34.0189 -10.4516 3.77021
head 12.9492 -4.92342 0.818186
rclavicle 4.13472e-014 7.95139e-016
rhumerus -57.9058 48.8214 -89.1914
rradius 120.052
rwrist -29.3425
rhand -22.297 19.424
rfingers 7.12502
rthumb 4.12196 -10.5159
lclavicle 4.13472e-014 7.95139e-016
lhumerus -31.8657 3.63143 85.1699
lradius 44.4053
lwrist 36.2842
lhand -17.6366 23.2884
lfingers 7.12502
lthumb 8.62104 53.0924
rfemur -10.6811 16.6787 12.7121
rtibia 23.9992
rfoot -9.72416 -3.89644
rtoes -8.31009
lfemur -0.597659 16.1639 -26.4905
ltibia 18.8944
lfoot -19.06 26.5212
ltoes 6.36028
583
root 10.8596 17.8127 -0.639891 -4.32425 -34.753 4.34262
lowerback 5.82473 -2.64037 2.17766
upperback 6.7001 -3.57825 1.35508
thorax 3.62571 -1.77059 0.272857
lowerneck -6.87111 -6.301 -4.58396
upperneck 34.069 -10.4475 4.05196
head 12.9828 -4.91731 0.960914
rclavicle 7.79236e-014 -1.35174e-014
rhumerus -57.8468 49.0571 -89.1611
rradius 120.894
rwrist -30.2197
rhand -21.9471 19.0646
rfingers 7.12502
rthumb 4.45988 -10.8685
lclavicle 7.79236e-014 -1.35174e-014
lhumerus -32.0854 4.23903 84.7439
lradius 43.9521
lwrist 35.7184
lhand -19.1356 22.4263
lfingers 7.12502
lthumb 7.17425 52.2847
rfemur -10.3584 16.5099 12.525
rtibia 23.864
rfoot -9.67724 -3.81259
rtoes -8.11624
lfemur 0.120958 15.7996 -26.6971
ltibia 17.9862
lfoot -18.9184 26.7506
ltoes 6.3058
584
root 10.8321 17.8142 -0.63321 -4.78338 -34.43 4.71543
lowerback 5.7857 -2.74117 1.3918
upperback 6.52161 -3.72481 1.22805
thorax 3.49683 -1.87312 0.585139
lowerneck -6.9529 -6.21401 -4.77419
upperneck 34.1663 -10.2823 4.02152
head 13.0425 -4.87239 0.999198
rclavicle -1.59425e-013 3.4191e-014
rhumerus -57.1951 49.608 -88.6137
rradius 121.619
rwrist -31.2279
rhand -21.3884 18.6021
rfingers 7.12502
rthumb 4.99936 -11.319
lclavicle -1.59425e-013 3.4191e-014
lhumerus -32.4036 4.68546 84.5593
lradius 43.5851
lwrist 36.0603
lhand -19.203 22.0259
lfingers 7.12502
lthumb 7.1092 51.8865
rfemur -9.79114 15.9474 12.3276
rtibia 23.6234
rfoot -9.82792 -3.45391
rtoes -8.17357
lfemur 0.786591 15.4527 -26.9314
ltibia 17.3871
lfoot -18.4562 27.0471
ltoes 5.2907
585
root 10.7993 17.816 -0.626631 -4.69792 -34.1613 4.25299
lowerback 5.65402 -2.86012 1.27005
upperback 6.39182 -3.8854 1.26825
thorax 3.44516 -1.9585 0.695075
lowerneck -7.14782 -6.0754 -4.57431
upperneck 34.1813 -10.0021 3.70576
head 13.0391 -4.76008 0.874965
rclavicle -1.17482e-013 3.33958e-014
rhumerus -56.6741 50.0308 -88.2657
rradius 122.487
rwrist -32.0391
rhand -21.1088 18.0182
rfingers 7.12502
rthumb 5.26931 -11.8963
lclavicle -1.17482e-013 3.33958e-014
lhumerus -32.7139 5.02862 84.3987
lradius 43.2598
lwrist 36.4054
lhand -17.7242 22.7202
lfingers 7.12502
lthumb 8.5365 52.5277
rfemur -9.23564 15.5365 12.9006
rtibia 23.3203
rfoot -10.0101 -3.30467
rtoes -8.26756
lfemur 1.29375 15.1061 -26.4289
ltibia 17.0029
lfoot -18.0899 27.2616
ltoes 4.70985
586
root 10.7664 17.8196 -0.628253 -4.32412 -34.1422 3.61072
lowerback 5.3427 -2.79478 1.50445
upperback 6.23408 -3.79113 1.232
thorax 3.4353 -1.89893 0.513437
lowerneck -7.30408 -6.01539 -4.2677
upperneck 34.1538 -9.88647 3.4892
head 13.0201 -4.69515 0.750174
rclavicle -2.34566e-014 -1.59028e-015
rhumerus -56.1279 50.061 -87.8851
rradius 123.284
rwrist -32.7033
rhand -21.0063 17.622
rfingers 7.12502
rthumb 5.36826 -12.29
lclavicle -2.34566e-014 -1.59028e-015
lhumerus -32.7278 5.50918 84.0025
lradius 42.6893
lwrist 36.0408
lhand -16.6082 23.4526
lfingers 7.12502
lthumb 9.61333 53.2133
rfemur -9.00322 15.5269 13.6039
rtibia 23.0605
rfoot -9.94987 -3.39893
rtoes -8.82878
lfemur 1.53441 14.7348 -25.7748
ltibia 16.6723
lfoot -18.5681 27.2509
ltoes 5.74135
587
root 10.7343 17.8234 -0.635171 -4.31995 -34.0537 3.45989
lowerback 5.11605 -2.58861 1.43782
upperback 6.08662 -3.51322 1.10473
thorax 3.40229 -1.75769 0.405885
lowerneck -7.1317 -6.07448 -4.4366
upperneck 33.9143 -10.0008 3.75805
head 12.915 -4.73964 0.875195
rclavicle -9.72057e-014 5.56597e-015
rhumerus -55.0885 49.6659 -86.9793
rradius 123.734
rwrist -33.4022
rhand -20.6959 17.3419
rfingers 7.12502
rthumb 5.66799 -12.5623
lclavicle -9.72057e-014 5.56597e-015
lhumerus -32.6188 5.79946 83.7383
lradius 42.0912
lwrist 35.3968
lhand -16.8474 23.488
lfingers 7.12502
lthumb 9.38254 53.2591
rfemur -8.67017 15.4879 13.8655
rtibia 22.7062
rfoot -9.68035 -3.3788
rtoes -8.58127
lfemur 1.69331 14.4358 -25.5655
ltibia 16.6204
lfoot -18.8979 27.349
ltoes 5.43119
588
root 10.7098 17.8197 -0.638042 -4.69841 -33.91 3.91106
lowerback 5.0053 -2.51431 0.734743
upperback 5.91337 -3.42145 0.907632
thorax 3.31003 -1.73294 0.591296
lowerneck -6.87552 -5.99493 -4.50814
upperneck 33.524 -9.88171 3.90896
head 12.701 -4.68915 0.974872
rclavicle -6.1822e-014 1.51076e-014
rhumerus -54.0939 49.7245 -86.2752
rradius 124.259
rwrist -34.2648
rhand -20.4875 16.8826
rfingers 7.12502
rthumb 5.8692 -13.0161
lclavicle -6.1822e-014 1.51076e-014
lhumerus -32.7497 6.35048 83.4879
lradius 41.6941
lwrist 35.1814
lhand -17.4557 23.3293
lfingers 7.12502
lthumb 8.79563 53.1261
rfemur -8.24752 15.3094 13.5407
rtibia 22.2347
rfoot -9.51617 -3.20112
rtoes -7.30415
lfemur 1.78904 14.2855 -25.9552
ltibia 16.7803
lfoot -18.4062 27.7651
ltoes 3.69751
589
root 10.6887 17.8227 -0.636803 -4.62812 -33.9927 3.53739
lowerback 4.9473 -2.51187 0.738921
upperback 5.7321 -3.41087 0.82218
thorax 3.14719 -1.72449 0.503437
lowerneck -6.66119 -5.79199 -4.16817
upperneck 33.0243 -9.55641 3.77766
head 12.3976 -4.53231 0.924191
rclavicle -4.51241e-014 8.74653e-015
rhumerus -53.5706 50.0466 -86.0879
rradius 125.089
rwrist -35.1152
rhand -20.461 16.4465
rfingers 7.12502
rthumb 5.89476 -13.4515
lclavicle -4.51241e-014 8.74653e-015
lhumerus -33.071 6.92417 83.0313
lradius 41.354
lwrist 35.1959
lhand -17.7177 23.4346
lfingers 7.12502
lthumb 8.54273 53.2418
rfemur -7.84973 15.3265 14.0114
rtibia 21.8077
rfoot -9.39549 -3.11255
rtoes -7.21699
lfemur 2.00985 14.1024 -25.5242
ltibia 16.7617
lfoot -18.396 28.0166
ltoes 4.24437
590
root 10.6634 17.8339 -0.630214 -4.28005 -33.9375 2.51305
lowerback 4.91823 -2.55086 1.32961
upperback 5.60059 -3.44535 0.872418
thorax 2.99578 -1.72135 0.230193
lowerneck -6.61334 -5.62553 -3.87759
upperneck 32.7433 -9.27086 3.57976
head 12.2266 -4.39952 0.842655
rclavicle 7.40473e-014 -1.35174e-014
rhumerus -53.1771 50.2789 -85.8878
rradius 125.935
rwrist -35.7744
rhand -20.3437 16.1199
rfingers 7.12502
rthumb 6.00803 -13.7749
lclavicle 7.40473e-014 -1.35174e-014
lhumerus -33.3707 7.51294 82.5203
lradius 41.0066
lwrist 34.6977
lhand -18.7218 23.1647
lfingers 7.12502
lthumb 7.57373 53.0091
rfemur -7.2747 15.1246 15.1164
rtibia 21.4053
rfoot -9.18818 -3.02848
rtoes -7.14048
lfemur 2.41798 13.7811 -24.4066
ltibia 16.6296
lfoot -18.9497 27.8534
ltoes 6.63964
591
root 10.6387 17.8411 -0.620739 -4.36999 -33.6228 2.44969
lowerback 4.81545 -2.6638 1.02816
upperback 5.44996 -3.59775 0.780808
thorax 2.9074 -1.80542 0.306361
lowerneck -7.12873 -5.55119 -3.85593
upperneck 33.1094 -9.14321 3.44773
head 12.4707 -4.34238 0.783162
rclavicle 8.77634e-014 -9.54166e-015
rhumerus -52.4779 50.6382 -85.4388
rradius 126.687
rwrist -36.4503
rhand -20.3811 15.6073
rfingers 7.12502
rthumb 5.9719 -14.2885
lclavicle 8.77634e-014 -9.54166e-015
lhumerus -33.5741 8.29936 82.0599
lradius 40.608
lwrist 34.4018
lhand -19.0809 23.1533
lfingers 7.12502
lthumb 7.22704 53.0099
rfemur -6.7018 14.5275 15.2512
rtibia 20.8458
rfoot -8.98601 -2.7986
rtoes -6.22277
lfemur 2.59695 13.3393 -24.2656
ltibia 16.7063
lfoot -19.1635 27.8355
ltoes 7.53361
